<?xml version="1.0" encoding="UTF-8" standalone="no"?>
<!DOCTYPE svg PUBLIC "-//W3C//DTD SVG 1.1//EN"
 "http://www.w3.org/Graphics/SVG/1.1/DTD/svg11.dtd">
<!-- Generated by graphviz version 5.0.0 (20220707.1540)
 -->
<!-- Title: dependencies Pages: 1 -->
<svg width="1419pt" height="247pt"
 viewBox="0.00 0.00 1419.00 246.80" xmlns="http://www.w3.org/2000/svg" xmlns:xlink="http://www.w3.org/1999/xlink">
<g id="graph0" class="graph" transform="scale(1 1) rotate(0) translate(4 242.8)">
<title>dependencies</title>
<polygon fill="white" stroke="transparent" points="-4,4 -4,-242.8 1415,-242.8 1415,4 -4,4"/>
<text text-anchor="middle" x="705.5" y="-8.2" font-family="sans-serif" font-size="14.00">dependencies</text>
<g id="clust1" class="cluster">
<title>cluster_AppModule</title>
<polygon fill="none" stroke="black" stroke-dasharray="1,5" points="8,-32.8 8,-230.8 1403,-230.8 1403,-32.8 8,-32.8"/>
</g>
<g id="clust9" class="cluster">
<title>cluster_AppModule_imports</title>
<polygon fill="none" stroke="black" points="1251,-40.8 1251,-92.8 1395,-92.8 1395,-40.8 1251,-40.8"/>
</g>
<g id="clust2" class="cluster">
<title>cluster_AppModule_declarations</title>
<polygon fill="none" stroke="black" points="408,-40.8 408,-92.8 1243,-92.8 1243,-40.8 408,-40.8"/>
</g>
<g id="clust11" class="cluster">
<title>cluster_AppModule_bootstrap</title>
<polygon fill="none" stroke="black" points="704,-170.8 704,-222.8 828,-222.8 828,-170.8 704,-170.8"/>
</g>
<g id="clust12" class="cluster">
<title>cluster_AppModule_providers</title>
<polygon fill="none" stroke="black" points="16,-40.8 16,-92.8 400,-92.8 400,-40.8 16,-40.8"/>
</g>
<!-- AboutComponent -->
<g id="node1" class="node">
<title>AboutComponent</title>
<polygon fill="#ffffb3" stroke="black" points="1235.33,-84.8 1118.67,-84.8 1118.67,-48.8 1235.33,-48.8 1235.33,-84.8"/>
<text text-anchor="middle" x="1177" y="-62.6" font-family="Times,serif" font-size="14.00">AboutComponent</text>
</g>
<!-- AppModule -->
<g id="node7" class="node">
<title>AppModule</title>
<polygon fill="#8dd3c7" stroke="black" points="807.66,-149.8 804.66,-153.8 783.66,-153.8 780.66,-149.8 724.34,-149.8 724.34,-113.8 807.66,-113.8 807.66,-149.8"/>
<text text-anchor="middle" x="766" y="-127.6" font-family="Times,serif" font-size="14.00">AppModule</text>
</g>
<!-- AboutComponent&#45;&gt;AppModule -->
<g id="edge1" class="edge">
<title>AboutComponent&#45;&gt;AppModule</title>
<path fill="none" stroke="black" d="M1177,-84.93C1177,-105.37 1177,-135.8 1177,-135.8 1177,-135.8 817.67,-135.8 817.67,-135.8"/>
<polygon fill="black" stroke="black" points="817.67,-132.3 807.67,-135.8 817.67,-139.3 817.67,-132.3"/>
</g>
<!-- AppComponent -->
<g id="node2" class="node">
<title>AppComponent</title>
<polygon fill="#ffffb3" stroke="black" points="1100.94,-84.8 995.06,-84.8 995.06,-48.8 1100.94,-48.8 1100.94,-84.8"/>
<text text-anchor="middle" x="1048" y="-62.6" font-family="Times,serif" font-size="14.00">AppComponent</text>
</g>
<!-- AppComponent&#45;&gt;AppModule -->
<g id="edge2" class="edge">
<title>AppComponent&#45;&gt;AppModule</title>
<path fill="none" stroke="black" d="M1048,-85.07C1048,-103.36 1048,-128.8 1048,-128.8 1048,-128.8 817.91,-128.8 817.91,-128.8"/>
<polygon fill="black" stroke="black" points="817.91,-125.3 807.91,-128.8 817.91,-132.3 817.91,-125.3"/>
</g>
<!-- ContactComponent -->
<g id="node3" class="node">
<title>ContactComponent</title>
<polygon fill="#ffffb3" stroke="black" points="977.38,-84.8 852.62,-84.8 852.62,-48.8 977.38,-48.8 977.38,-84.8"/>
<text text-anchor="middle" x="915" y="-62.6" font-family="Times,serif" font-size="14.00">ContactComponent</text>
</g>
<!-- ContactComponent&#45;&gt;AppModule -->
<g id="edge3" class="edge">
<title>ContactComponent&#45;&gt;AppModule</title>
<path fill="none" stroke="black" d="M915,-84.81C915,-100.85 915,-121.8 915,-121.8 915,-121.8 817.9,-121.8 817.9,-121.8"/>
<polygon fill="black" stroke="black" points="817.9,-118.3 807.9,-121.8 817.9,-125.3 817.9,-118.3"/>
</g>
<!-- ErrorpageComponent -->
<g id="node4" class="node">
<title>ErrorpageComponent</title>
<polygon fill="#ffffb3" stroke="black" points="834.8,-84.8 697.2,-84.8 697.2,-48.8 834.8,-48.8 834.8,-84.8"/>
<text text-anchor="middle" x="766" y="-62.6" font-family="Times,serif" font-size="14.00">ErrorpageComponent</text>
</g>
<!-- ErrorpageComponent&#45;&gt;AppModule -->
<g id="edge4" class="edge">
<title>ErrorpageComponent&#45;&gt;AppModule</title>
<path fill="none" stroke="black" d="M766,-84.91C766,-84.91 766,-103.79 766,-103.79"/>
<polygon fill="black" stroke="black" points="762.5,-103.79 766,-113.79 769.5,-103.79 762.5,-103.79"/>
</g>
<!-- HomeComponent -->
<g id="node5" class="node">
<title>HomeComponent</title>
<polygon fill="#ffffb3" stroke="black" points="679.55,-84.8 564.45,-84.8 564.45,-48.8 679.55,-48.8 679.55,-84.8"/>
<text text-anchor="middle" x="622" y="-62.6" font-family="Times,serif" font-size="14.00">HomeComponent</text>
</g>
<!-- HomeComponent&#45;&gt;AppModule -->
<g id="edge5" class="edge">
<title>HomeComponent&#45;&gt;AppModule</title>
<path fill="none" stroke="black" d="M622,-84.81C622,-100.85 622,-121.8 622,-121.8 622,-121.8 713.96,-121.8 713.96,-121.8"/>
<polygon fill="black" stroke="black" points="713.96,-125.3 723.96,-121.8 713.96,-118.3 713.96,-125.3"/>
</g>
<!-- UpperCaseDirective -->
<g id="node6" class="node">
<title>UpperCaseDirective</title>
<polygon fill="#ffffb3" stroke="black" points="546.28,-84.8 415.72,-84.8 415.72,-48.8 546.28,-48.8 546.28,-84.8"/>
<text text-anchor="middle" x="481" y="-62.6" font-family="Times,serif" font-size="14.00">UpperCaseDirective</text>
</g>
<!-- UpperCaseDirective&#45;&gt;AppModule -->
<g id="edge6" class="edge">
<title>UpperCaseDirective&#45;&gt;AppModule</title>
<path fill="none" stroke="black" d="M481,-85.07C481,-103.36 481,-128.8 481,-128.8 481,-128.8 714.25,-128.8 714.25,-128.8"/>
<polygon fill="black" stroke="black" points="714.25,-132.3 724.25,-128.8 714.25,-125.3 714.25,-132.3"/>
</g>
<!-- AppComponent  -->
<g id="node9" class="node">
<title>AppComponent </title>
<polygon fill="#80b1d3" stroke="black" points="820.44,-214.8 711.56,-214.8 711.56,-178.8 820.44,-178.8 820.44,-214.8"/>
<text text-anchor="middle" x="766" y="-192.6" font-family="Times,serif" font-size="14.00">AppComponent </text>
</g>
<!-- AppModule&#45;&gt;AppComponent  -->
<g id="edge8" class="edge">
<title>AppModule&#45;&gt;AppComponent </title>
<path fill="none" stroke="black" stroke-dasharray="1,5" d="M766,-149.91C766,-149.91 766,-168.79 766,-168.79"/>
<polygon fill="black" stroke="black" points="762.5,-168.79 766,-178.79 769.5,-168.79 762.5,-168.79"/>
</g>
<!-- AppRoutingModule -->
<g id="node8" class="node">
<title>AppRoutingModule</title>
<polygon fill="#8dd3c7" stroke="black" points="1387.28,-84.8 1384.28,-88.8 1363.28,-88.8 1360.28,-84.8 1258.72,-84.8 1258.72,-48.8 1387.28,-48.8 1387.28,-84.8"/>
<text text-anchor="middle" x="1323" y="-62.6" font-family="Times,serif" font-size="14.00">AppRoutingModule</text>
</g>
<!-- AppRoutingModule&#45;&gt;AppModule -->
<g id="edge7" class="edge">
<title>AppRoutingModule&#45;&gt;AppModule</title>
<path fill="none" stroke="black" d="M1323,-84.81C1323,-107.29 1323,-142.8 1323,-142.8 1323,-142.8 817.87,-142.8 817.87,-142.8"/>
<polygon fill="black" stroke="black" points="817.87,-139.3 807.87,-142.8 817.87,-146.3 817.87,-139.3"/>
</g>
<!-- ApiInterceptor -->
<g id="node10" class="node">
<title>ApiInterceptor</title>
<ellipse fill="#fdb462" stroke="black" cx="324" cy="-66.8" rx="67.76" ry="18"/>
<text text-anchor="middle" x="324" y="-62.6" font-family="Times,serif" font-size="14.00">ApiInterceptor</text>
</g>
<!-- ApiInterceptor&#45;&gt;AppModule -->
<g id="edge9" class="edge">
<title>ApiInterceptor&#45;&gt;AppModule</title>
<path fill="none" stroke="black" d="M324,-84.93C324,-105.37 324,-135.8 324,-135.8 324,-135.8 714.02,-135.8 714.02,-135.8"/>
<polygon fill="black" stroke="black" points="714.02,-139.3 724.02,-135.8 714.02,-132.3 714.02,-139.3"/>
</g>
<!-- ApiRateLimitInterceptor -->
<g id="node11" class="node">
<title>ApiRateLimitInterceptor</title>
<ellipse fill="#fdb462" stroke="black" cx="131" cy="-66.8" rx="107.07" ry="18"/>
<text text-anchor="middle" x="131" y="-62.6" font-family="Times,serif" font-size="14.00">ApiRateLimitInterceptor</text>
</g>
<!-- ApiRateLimitInterceptor&#45;&gt;AppModule -->
<g id="edge10" class="edge">
<title>ApiRateLimitInterceptor&#45;&gt;AppModule</title>
<path fill="none" stroke="black" d="M131,-84.81C131,-107.29 131,-142.8 131,-142.8 131,-142.8 714.34,-142.8 714.34,-142.8"/>
<polygon fill="black" stroke="black" points="714.34,-146.3 724.34,-142.8 714.34,-139.3 714.34,-146.3"/>
</g>
</g>
</svg>
