<?xml version="1.0" encoding="UTF-8" standalone="no"?>
<!DOCTYPE svg PUBLIC "-//W3C//DTD SVG 1.1//EN"
 "http://www.w3.org/Graphics/SVG/1.1/DTD/svg11.dtd">
<!-- Generated by graphviz version 5.0.0 (20220707.1540)
 -->
<!-- Title: dependencies Pages: 1 -->
<svg width="1419pt" height="247pt"
 viewBox="0.00 0.00 1419.00 246.80" xmlns="http://www.w3.org/2000/svg" xmlns:xlink="http://www.w3.org/1999/xlink">
<g id="graph0" class="graph" transform="scale(1 1) rotate(0) translate(4 242.8)">
<title>dependencies</title>
<polygon fill="white" stroke="transparent" points="-4,4 -4,-242.8 1415,-242.8 1415,4 -4,4"/>
<text text-anchor="middle" x="705.5" y="-8.2" font-family="sans-serif" font-size="14.00">dependencies</text>
<g id="clust1" class="cluster">
<title>cluster_AppModule</title>
<polygon fill="none" stroke="black" stroke-dasharray="1,5" points="8,-32.8 8,-230.8 1403,-230.8 1403,-32.8 8,-32.8"/>
</g>
<g id="clust2" class="cluster">
<title>cluster_AppModule_declarations</title>
<polygon fill="none" stroke="black" points="560,-40.8 560,-92.8 1395,-92.8 1395,-40.8 560,-40.8"/>
</g>
<g id="clust9" class="cluster">
<title>cluster_AppModule_imports</title>
<polygon fill="none" stroke="black" points="408,-40.8 408,-92.8 552,-92.8 552,-40.8 408,-40.8"/>
</g>
<g id="clust11" class="cluster">
<title>cluster_AppModule_bootstrap</title>
<polygon fill="none" stroke="black" points="712,-170.8 712,-222.8 836,-222.8 836,-170.8 712,-170.8"/>
</g>
<g id="clust12" class="cluster">
<title>cluster_AppModule_providers</title>
<polygon fill="none" stroke="black" points="16,-40.8 16,-92.8 400,-92.8 400,-40.8 16,-40.8"/>
</g>
<!-- AboutComponent -->
<g id="node1" class="node">
<title>AboutComponent</title>
<polygon fill="#ffffb3" stroke="black" points="1387.33,-84.8 1270.67,-84.8 1270.67,-48.8 1387.33,-48.8 1387.33,-84.8"/>
<text text-anchor="middle" x="1329" y="-62.6" font-family="Times,serif" font-size="14.00">AboutComponent</text>
</g>
<!-- AppModule -->
<g id="node7" class="node">
<title>AppModule</title>
<polygon fill="#8dd3c7" stroke="black" points="815.66,-149.8 812.66,-153.8 791.66,-153.8 788.66,-149.8 732.34,-149.8 732.34,-113.8 815.66,-113.8 815.66,-149.8"/>
<text text-anchor="middle" x="774" y="-127.6" font-family="Times,serif" font-size="14.00">AppModule</text>
</g>
<!-- AboutComponent&#45;&gt;AppModule -->
<g id="edge1" class="edge">
<title>AboutComponent&#45;&gt;AppModule</title>
<path fill="none" stroke="black" d="M1329,-84.81C1329,-107.29 1329,-142.8 1329,-142.8 1329,-142.8 825.72,-142.8 825.72,-142.8"/>
<polygon fill="black" stroke="black" points="825.72,-139.3 815.72,-142.8 825.72,-146.3 825.72,-139.3"/>
</g>
<!-- AppComponent -->
<g id="node2" class="node">
<title>AppComponent</title>
<polygon fill="#ffffb3" stroke="black" points="1252.94,-84.8 1147.06,-84.8 1147.06,-48.8 1252.94,-48.8 1252.94,-84.8"/>
<text text-anchor="middle" x="1200" y="-62.6" font-family="Times,serif" font-size="14.00">AppComponent</text>
</g>
<!-- AppComponent&#45;&gt;AppModule -->
<g id="edge2" class="edge">
<title>AppComponent&#45;&gt;AppModule</title>
<path fill="none" stroke="black" d="M1200,-84.93C1200,-105.37 1200,-135.8 1200,-135.8 1200,-135.8 826.01,-135.8 826.01,-135.8"/>
<polygon fill="black" stroke="black" points="826.01,-132.3 816.01,-135.8 826.01,-139.3 826.01,-132.3"/>
</g>
<!-- ContactComponent -->
<g id="node3" class="node">
<title>ContactComponent</title>
<polygon fill="#ffffb3" stroke="black" points="1129.38,-84.8 1004.62,-84.8 1004.62,-48.8 1129.38,-48.8 1129.38,-84.8"/>
<text text-anchor="middle" x="1067" y="-62.6" font-family="Times,serif" font-size="14.00">ContactComponent</text>
</g>
<!-- ContactComponent&#45;&gt;AppModule -->
<g id="edge3" class="edge">
<title>ContactComponent&#45;&gt;AppModule</title>
<path fill="none" stroke="black" d="M1067,-85.07C1067,-103.36 1067,-128.8 1067,-128.8 1067,-128.8 825.67,-128.8 825.67,-128.8"/>
<polygon fill="black" stroke="black" points="825.67,-125.3 815.67,-128.8 825.67,-132.3 825.67,-125.3"/>
</g>
<!-- ErrorpageComponent -->
<g id="node4" class="node">
<title>ErrorpageComponent</title>
<polygon fill="#ffffb3" stroke="black" points="986.8,-84.8 849.2,-84.8 849.2,-48.8 986.8,-48.8 986.8,-84.8"/>
<text text-anchor="middle" x="918" y="-62.6" font-family="Times,serif" font-size="14.00">ErrorpageComponent</text>
</g>
<!-- ErrorpageComponent&#45;&gt;AppModule -->
<g id="edge4" class="edge">
<title>ErrorpageComponent&#45;&gt;AppModule</title>
<path fill="none" stroke="black" d="M918,-84.81C918,-100.85 918,-121.8 918,-121.8 918,-121.8 826.04,-121.8 826.04,-121.8"/>
<polygon fill="black" stroke="black" points="826.04,-118.3 816.04,-121.8 826.04,-125.3 826.04,-118.3"/>
</g>
<!-- HomeComponent -->
<g id="node5" class="node">
<title>HomeComponent</title>
<polygon fill="#ffffb3" stroke="black" points="831.55,-84.8 716.45,-84.8 716.45,-48.8 831.55,-48.8 831.55,-84.8"/>
<text text-anchor="middle" x="774" y="-62.6" font-family="Times,serif" font-size="14.00">HomeComponent</text>
</g>
<!-- HomeComponent&#45;&gt;AppModule -->
<g id="edge5" class="edge">
<title>HomeComponent&#45;&gt;AppModule</title>
<path fill="none" stroke="black" d="M774,-84.91C774,-84.91 774,-103.79 774,-103.79"/>
<polygon fill="black" stroke="black" points="770.5,-103.79 774,-113.79 777.5,-103.79 770.5,-103.79"/>
</g>
<!-- UpperCaseDirective -->
<g id="node6" class="node">
<title>UpperCaseDirective</title>
<polygon fill="#ffffb3" stroke="black" points="698.28,-84.8 567.72,-84.8 567.72,-48.8 698.28,-48.8 698.28,-84.8"/>
<text text-anchor="middle" x="633" y="-62.6" font-family="Times,serif" font-size="14.00">UpperCaseDirective</text>
</g>
<!-- UpperCaseDirective&#45;&gt;AppModule -->
<g id="edge6" class="edge">
<title>UpperCaseDirective&#45;&gt;AppModule</title>
<path fill="none" stroke="black" d="M633,-84.81C633,-100.85 633,-121.8 633,-121.8 633,-121.8 722.08,-121.8 722.08,-121.8"/>
<polygon fill="black" stroke="black" points="722.08,-125.3 732.08,-121.8 722.08,-118.3 722.08,-125.3"/>
</g>
<!-- AppComponent  -->
<g id="node9" class="node">
<title>AppComponent </title>
<polygon fill="#80b1d3" stroke="black" points="828.44,-214.8 719.56,-214.8 719.56,-178.8 828.44,-178.8 828.44,-214.8"/>
<text text-anchor="middle" x="774" y="-192.6" font-family="Times,serif" font-size="14.00">AppComponent </text>
</g>
<!-- AppModule&#45;&gt;AppComponent  -->
<g id="edge8" class="edge">
<title>AppModule&#45;&gt;AppComponent </title>
<path fill="none" stroke="black" stroke-dasharray="1,5" d="M774,-149.91C774,-149.91 774,-168.79 774,-168.79"/>
<polygon fill="black" stroke="black" points="770.5,-168.79 774,-178.79 777.5,-168.79 770.5,-168.79"/>
</g>
<!-- AppRoutingModule -->
<g id="node8" class="node">
<title>AppRoutingModule</title>
<polygon fill="#8dd3c7" stroke="black" points="544.28,-84.8 541.28,-88.8 520.28,-88.8 517.28,-84.8 415.72,-84.8 415.72,-48.8 544.28,-48.8 544.28,-84.8"/>
<text text-anchor="middle" x="480" y="-62.6" font-family="Times,serif" font-size="14.00">AppRoutingModule</text>
</g>
<!-- AppRoutingModule&#45;&gt;AppModule -->
<g id="edge7" class="edge">
<title>AppRoutingModule&#45;&gt;AppModule</title>
<path fill="none" stroke="black" d="M480,-85.07C480,-103.36 480,-128.8 480,-128.8 480,-128.8 722.19,-128.8 722.19,-128.8"/>
<polygon fill="black" stroke="black" points="722.19,-132.3 732.19,-128.8 722.19,-125.3 722.19,-132.3"/>
</g>
<!-- ApiInterceptor -->
<g id="node10" class="node">
<title>ApiInterceptor</title>
<ellipse fill="#fdb462" stroke="black" cx="324" cy="-66.8" rx="67.76" ry="18"/>
<text text-anchor="middle" x="324" y="-62.6" font-family="Times,serif" font-size="14.00">ApiInterceptor</text>
</g>
<!-- ApiInterceptor&#45;&gt;AppModule -->
<g id="edge9" class="edge">
<title>ApiInterceptor&#45;&gt;AppModule</title>
<path fill="none" stroke="black" d="M324,-84.93C324,-105.37 324,-135.8 324,-135.8 324,-135.8 722.07,-135.8 722.07,-135.8"/>
<polygon fill="black" stroke="black" points="722.07,-139.3 732.07,-135.8 722.07,-132.3 722.07,-139.3"/>
</g>
<!-- ApiRateLimitInterceptor -->
<g id="node11" class="node">
<title>ApiRateLimitInterceptor</title>
<ellipse fill="#fdb462" stroke="black" cx="131" cy="-66.8" rx="107.07" ry="18"/>
<text text-anchor="middle" x="131" y="-62.6" font-family="Times,serif" font-size="14.00">ApiRateLimitInterceptor</text>
</g>
<!-- ApiRateLimitInterceptor&#45;&gt;AppModule -->
<g id="edge10" class="edge">
<title>ApiRateLimitInterceptor&#45;&gt;AppModule</title>
<path fill="none" stroke="black" d="M131,-84.81C131,-107.29 131,-142.8 131,-142.8 131,-142.8 722.31,-142.8 722.31,-142.8"/>
<polygon fill="black" stroke="black" points="722.31,-146.3 732.31,-142.8 722.31,-139.3 722.31,-146.3"/>
</g>
</g>
</svg>
